<mxfile host="app.diagrams.net" agent="Mozilla/5.0 (Windows NT 10.0; Win64; x64) AppleWebKit/537.36 (KHTML, like Gecko) Chrome/133.0.0.0 Safari/537.36" version="26.0.16">
  <diagram name="Page-1" id="b5b7bab2-c9e2-2cf4-8b2a-24fd1a2a6d21">
    <mxGraphModel dx="1430" dy="541" grid="1" gridSize="10" guides="1" tooltips="1" connect="1" arrows="1" fold="1" page="1" pageScale="1" pageWidth="1169" pageHeight="827" background="none" math="0" shadow="0">
      <root>
        <mxCell id="0" />
        <mxCell id="1" parent="0" />
        <mxCell id="E87La_fp3oiZn3WdMD0V-1" value="providers" style="swimlane;fontStyle=1;align=center;verticalAlign=top;childLayout=stackLayout;horizontal=1;startSize=26;horizontalStack=0;resizeParent=1;resizeParentMax=0;resizeLast=0;collapsible=1;marginBottom=0;whiteSpace=wrap;html=1;" parent="1" vertex="1">
          <mxGeometry x="690" y="200" width="200" height="242" as="geometry" />
        </mxCell>
        <mxCell id="E87La_fp3oiZn3WdMD0V-17" value="PK&amp;nbsp;id: int(11)" style="text;strokeColor=default;fillColor=none;align=left;verticalAlign=top;spacingLeft=4;spacingRight=4;overflow=hidden;rotatable=0;points=[[0,0.5],[1,0.5]];portConstraint=eastwest;whiteSpace=wrap;html=1;" parent="E87La_fp3oiZn3WdMD0V-1" vertex="1">
          <mxGeometry y="26" width="200" height="26" as="geometry" />
        </mxCell>
        <mxCell id="E87La_fp3oiZn3WdMD0V-2" value="name: varchar(45)" style="text;strokeColor=none;fillColor=none;align=left;verticalAlign=top;spacingLeft=4;spacingRight=4;overflow=hidden;rotatable=0;points=[[0,0.5],[1,0.5]];portConstraint=eastwest;whiteSpace=wrap;html=1;" parent="E87La_fp3oiZn3WdMD0V-1" vertex="1">
          <mxGeometry y="52" width="200" height="26" as="geometry" />
        </mxCell>
        <mxCell id="E87La_fp3oiZn3WdMD0V-5" value="address_id: int(11)" style="text;strokeColor=none;fillColor=none;align=left;verticalAlign=top;spacingLeft=4;spacingRight=4;overflow=hidden;rotatable=0;points=[[0,0.5],[1,0.5]];portConstraint=eastwest;whiteSpace=wrap;html=1;" parent="E87La_fp3oiZn3WdMD0V-1" vertex="1">
          <mxGeometry y="78" width="200" height="26" as="geometry" />
        </mxCell>
        <mxCell id="E87La_fp3oiZn3WdMD0V-6" value="phone_number: varchar(20)" style="text;strokeColor=none;fillColor=none;align=left;verticalAlign=top;spacingLeft=4;spacingRight=4;overflow=hidden;rotatable=0;points=[[0,0.5],[1,0.5]];portConstraint=eastwest;whiteSpace=wrap;html=1;" parent="E87La_fp3oiZn3WdMD0V-1" vertex="1">
          <mxGeometry y="104" width="200" height="26" as="geometry" />
        </mxCell>
        <mxCell id="E87La_fp3oiZn3WdMD0V-8" value="fax:&amp;nbsp; varchar(20)" style="text;strokeColor=none;fillColor=none;align=left;verticalAlign=top;spacingLeft=4;spacingRight=4;overflow=hidden;rotatable=0;points=[[0,0.5],[1,0.5]];portConstraint=eastwest;whiteSpace=wrap;html=1;" parent="E87La_fp3oiZn3WdMD0V-1" vertex="1">
          <mxGeometry y="130" width="200" height="26" as="geometry" />
        </mxCell>
        <mxCell id="E87La_fp3oiZn3WdMD0V-7" value="nif:&amp;nbsp; varchar(10)" style="text;strokeColor=none;fillColor=none;align=left;verticalAlign=top;spacingLeft=4;spacingRight=4;overflow=hidden;rotatable=0;points=[[0,0.5],[1,0.5]];portConstraint=eastwest;whiteSpace=wrap;html=1;" parent="E87La_fp3oiZn3WdMD0V-1" vertex="1">
          <mxGeometry y="156" width="200" height="26" as="geometry" />
        </mxCell>
        <mxCell id="ixOyMXAkQ-w000aH7906-1" value="reg_date:&amp;nbsp;&lt;span style=&quot;font-family: sans-serif; font-size: 13.12px; text-wrap-mode: nowrap; background-color: rgb(255, 255, 255);&quot;&gt;datetime&lt;/span&gt;" style="text;strokeColor=none;fillColor=none;align=left;verticalAlign=top;spacingLeft=4;spacingRight=4;overflow=hidden;rotatable=0;points=[[0,0.5],[1,0.5]];portConstraint=eastwest;whiteSpace=wrap;html=1;" parent="E87La_fp3oiZn3WdMD0V-1" vertex="1">
          <mxGeometry y="182" width="200" height="26" as="geometry" />
        </mxCell>
        <mxCell id="E87La_fp3oiZn3WdMD0V-3" value="" style="line;strokeWidth=1;fillColor=none;align=left;verticalAlign=middle;spacingTop=-1;spacingLeft=3;spacingRight=3;rotatable=0;labelPosition=right;points=[];portConstraint=eastwest;strokeColor=inherit;" parent="E87La_fp3oiZn3WdMD0V-1" vertex="1">
          <mxGeometry y="208" width="200" height="8" as="geometry" />
        </mxCell>
        <mxCell id="rkmJLzN8BwR5XowPxIm3-57" value="FK fk_provider_address: int(11)" style="text;strokeColor=none;fillColor=none;align=left;verticalAlign=top;spacingLeft=4;spacingRight=4;overflow=hidden;rotatable=0;points=[[0,0.5],[1,0.5]];portConstraint=eastwest;whiteSpace=wrap;html=1;" parent="E87La_fp3oiZn3WdMD0V-1" vertex="1">
          <mxGeometry y="216" width="200" height="26" as="geometry" />
        </mxCell>
        <mxCell id="E87La_fp3oiZn3WdMD0V-18" value="addresses" style="swimlane;fontStyle=1;align=center;verticalAlign=top;childLayout=stackLayout;horizontal=1;startSize=26;horizontalStack=0;resizeParent=1;resizeParentMax=0;resizeLast=0;collapsible=1;marginBottom=0;whiteSpace=wrap;html=1;" parent="1" vertex="1">
          <mxGeometry x="360" y="200" width="160" height="216" as="geometry" />
        </mxCell>
        <mxCell id="E87La_fp3oiZn3WdMD0V-19" value="PK&amp;nbsp;id: int(11)" style="text;strokeColor=default;fillColor=none;align=left;verticalAlign=top;spacingLeft=4;spacingRight=4;overflow=hidden;rotatable=0;points=[[0,0.5],[1,0.5]];portConstraint=eastwest;whiteSpace=wrap;html=1;" parent="E87La_fp3oiZn3WdMD0V-18" vertex="1">
          <mxGeometry y="26" width="160" height="26" as="geometry" />
        </mxCell>
        <mxCell id="E87La_fp3oiZn3WdMD0V-20" value="street: varchar(100)" style="text;strokeColor=none;fillColor=none;align=left;verticalAlign=top;spacingLeft=4;spacingRight=4;overflow=hidden;rotatable=0;points=[[0,0.5],[1,0.5]];portConstraint=eastwest;whiteSpace=wrap;html=1;" parent="E87La_fp3oiZn3WdMD0V-18" vertex="1">
          <mxGeometry y="52" width="160" height="26" as="geometry" />
        </mxCell>
        <mxCell id="E87La_fp3oiZn3WdMD0V-21" value="number: tinyint(4)" style="text;strokeColor=none;fillColor=none;align=left;verticalAlign=top;spacingLeft=4;spacingRight=4;overflow=hidden;rotatable=0;points=[[0,0.5],[1,0.5]];portConstraint=eastwest;whiteSpace=wrap;html=1;" parent="E87La_fp3oiZn3WdMD0V-18" vertex="1">
          <mxGeometry y="78" width="160" height="26" as="geometry" />
        </mxCell>
        <mxCell id="E87La_fp3oiZn3WdMD0V-22" value="floor: varchar(5)" style="text;strokeColor=none;fillColor=none;align=left;verticalAlign=top;spacingLeft=4;spacingRight=4;overflow=hidden;rotatable=0;points=[[0,0.5],[1,0.5]];portConstraint=eastwest;whiteSpace=wrap;html=1;" parent="E87La_fp3oiZn3WdMD0V-18" vertex="1">
          <mxGeometry y="104" width="160" height="26" as="geometry" />
        </mxCell>
        <mxCell id="E87La_fp3oiZn3WdMD0V-23" value="door: varchar(5)" style="text;strokeColor=none;fillColor=none;align=left;verticalAlign=top;spacingLeft=4;spacingRight=4;overflow=hidden;rotatable=0;points=[[0,0.5],[1,0.5]];portConstraint=eastwest;whiteSpace=wrap;html=1;" parent="E87La_fp3oiZn3WdMD0V-18" vertex="1">
          <mxGeometry y="130" width="160" height="26" as="geometry" />
        </mxCell>
        <mxCell id="E87La_fp3oiZn3WdMD0V-24" value="postal_code: varchar(5)" style="text;strokeColor=none;fillColor=none;align=left;verticalAlign=top;spacingLeft=4;spacingRight=4;overflow=hidden;rotatable=0;points=[[0,0.5],[1,0.5]];portConstraint=eastwest;whiteSpace=wrap;html=1;" parent="E87La_fp3oiZn3WdMD0V-18" vertex="1">
          <mxGeometry y="156" width="160" height="26" as="geometry" />
        </mxCell>
        <mxCell id="E87La_fp3oiZn3WdMD0V-27" value="country: varchar(110)" style="text;strokeColor=none;fillColor=none;align=left;verticalAlign=top;spacingLeft=4;spacingRight=4;overflow=hidden;rotatable=0;points=[[0,0.5],[1,0.5]];portConstraint=eastwest;whiteSpace=wrap;html=1;" parent="E87La_fp3oiZn3WdMD0V-18" vertex="1">
          <mxGeometry y="182" width="160" height="26" as="geometry" />
        </mxCell>
        <mxCell id="E87La_fp3oiZn3WdMD0V-25" value="" style="line;strokeWidth=1;fillColor=none;align=left;verticalAlign=middle;spacingTop=-1;spacingLeft=3;spacingRight=3;rotatable=0;labelPosition=right;points=[];portConstraint=eastwest;strokeColor=inherit;" parent="E87La_fp3oiZn3WdMD0V-18" vertex="1">
          <mxGeometry y="208" width="160" height="8" as="geometry" />
        </mxCell>
        <mxCell id="E87La_fp3oiZn3WdMD0V-28" value="glasses" style="swimlane;fontStyle=1;align=center;verticalAlign=top;childLayout=stackLayout;horizontal=1;startSize=26;horizontalStack=0;resizeParent=1;resizeParentMax=0;resizeLast=0;collapsible=1;marginBottom=0;whiteSpace=wrap;html=1;" parent="1" vertex="1">
          <mxGeometry x="1040" y="200" width="240" height="346" as="geometry" />
        </mxCell>
        <mxCell id="E87La_fp3oiZn3WdMD0V-29" value="PK&amp;nbsp;id: int(11)" style="text;strokeColor=default;fillColor=none;align=left;verticalAlign=top;spacingLeft=4;spacingRight=4;overflow=hidden;rotatable=0;points=[[0,0.5],[1,0.5]];portConstraint=eastwest;whiteSpace=wrap;html=1;" parent="E87La_fp3oiZn3WdMD0V-28" vertex="1">
          <mxGeometry y="26" width="240" height="26" as="geometry" />
        </mxCell>
        <mxCell id="E87La_fp3oiZn3WdMD0V-30" value="brand: varchar(100)" style="text;strokeColor=none;fillColor=none;align=left;verticalAlign=top;spacingLeft=4;spacingRight=4;overflow=hidden;rotatable=0;points=[[0,0.5],[1,0.5]];portConstraint=eastwest;whiteSpace=wrap;html=1;" parent="E87La_fp3oiZn3WdMD0V-28" vertex="1">
          <mxGeometry y="52" width="240" height="26" as="geometry" />
        </mxCell>
        <mxCell id="E87La_fp3oiZn3WdMD0V-31" value="glass_graduation_left: decimal(3,2)" style="text;strokeColor=none;fillColor=none;align=left;verticalAlign=top;spacingLeft=4;spacingRight=4;overflow=hidden;rotatable=0;points=[[0,0.5],[1,0.5]];portConstraint=eastwest;whiteSpace=wrap;html=1;" parent="E87La_fp3oiZn3WdMD0V-28" vertex="1">
          <mxGeometry y="78" width="240" height="26" as="geometry" />
        </mxCell>
        <mxCell id="E87La_fp3oiZn3WdMD0V-32" value="glass_graduation_right: decimal(3,2)" style="text;strokeColor=none;fillColor=none;align=left;verticalAlign=top;spacingLeft=4;spacingRight=4;overflow=hidden;rotatable=0;points=[[0,0.5],[1,0.5]];portConstraint=eastwest;whiteSpace=wrap;html=1;" parent="E87La_fp3oiZn3WdMD0V-28" vertex="1">
          <mxGeometry y="104" width="240" height="26" as="geometry" />
        </mxCell>
        <mxCell id="E87La_fp3oiZn3WdMD0V-37" value="glass_color_right: varchar(100)" style="text;strokeColor=none;fillColor=none;align=left;verticalAlign=top;spacingLeft=4;spacingRight=4;overflow=hidden;rotatable=0;points=[[0,0.5],[1,0.5]];portConstraint=eastwest;whiteSpace=wrap;html=1;" parent="E87La_fp3oiZn3WdMD0V-28" vertex="1">
          <mxGeometry y="130" width="240" height="26" as="geometry" />
        </mxCell>
        <mxCell id="E87La_fp3oiZn3WdMD0V-38" value="glass_color_left: varchar(100)" style="text;strokeColor=none;fillColor=none;align=left;verticalAlign=top;spacingLeft=4;spacingRight=4;overflow=hidden;rotatable=0;points=[[0,0.5],[1,0.5]];portConstraint=eastwest;whiteSpace=wrap;html=1;" parent="E87La_fp3oiZn3WdMD0V-28" vertex="1">
          <mxGeometry y="156" width="240" height="26" as="geometry" />
        </mxCell>
        <mxCell id="E87La_fp3oiZn3WdMD0V-95" value="reg_date: datetime" style="text;strokeColor=none;fillColor=none;align=left;verticalAlign=top;spacingLeft=4;spacingRight=4;overflow=hidden;rotatable=0;points=[[0,0.5],[1,0.5]];portConstraint=eastwest;whiteSpace=wrap;html=1;" parent="E87La_fp3oiZn3WdMD0V-28" vertex="1">
          <mxGeometry y="182" width="240" height="26" as="geometry" />
        </mxCell>
        <mxCell id="E87La_fp3oiZn3WdMD0V-39" value="price:&amp;nbsp;decimal(10,2)" style="text;strokeColor=none;fillColor=none;align=left;verticalAlign=top;spacingLeft=4;spacingRight=4;overflow=hidden;rotatable=0;points=[[0,0.5],[1,0.5]];portConstraint=eastwest;whiteSpace=wrap;html=1;" parent="E87La_fp3oiZn3WdMD0V-28" vertex="1">
          <mxGeometry y="208" width="240" height="26" as="geometry" />
        </mxCell>
        <mxCell id="E87La_fp3oiZn3WdMD0V-33" value="mount_type_id: int(11)" style="text;strokeColor=none;fillColor=none;align=left;verticalAlign=top;spacingLeft=4;spacingRight=4;overflow=hidden;rotatable=0;points=[[0,0.5],[1,0.5]];portConstraint=eastwest;whiteSpace=wrap;html=1;" parent="E87La_fp3oiZn3WdMD0V-28" vertex="1">
          <mxGeometry y="234" width="240" height="26" as="geometry" />
        </mxCell>
        <mxCell id="rkmJLzN8BwR5XowPxIm3-59" value="provider_id: int(11)" style="text;strokeColor=none;fillColor=none;align=left;verticalAlign=top;spacingLeft=4;spacingRight=4;overflow=hidden;rotatable=0;points=[[0,0.5],[1,0.5]];portConstraint=eastwest;whiteSpace=wrap;html=1;" parent="E87La_fp3oiZn3WdMD0V-28" vertex="1">
          <mxGeometry y="260" width="240" height="26" as="geometry" />
        </mxCell>
        <mxCell id="E87La_fp3oiZn3WdMD0V-35" value="" style="line;strokeWidth=1;fillColor=none;align=left;verticalAlign=middle;spacingTop=-1;spacingLeft=3;spacingRight=3;rotatable=0;labelPosition=right;points=[];portConstraint=eastwest;strokeColor=inherit;" parent="E87La_fp3oiZn3WdMD0V-28" vertex="1">
          <mxGeometry y="286" width="240" height="8" as="geometry" />
        </mxCell>
        <mxCell id="rkmJLzN8BwR5XowPxIm3-56" value="FK fk_glasses_provider: int(11)" style="text;strokeColor=none;fillColor=none;align=left;verticalAlign=top;spacingLeft=4;spacingRight=4;overflow=hidden;rotatable=0;points=[[0,0.5],[1,0.5]];portConstraint=eastwest;whiteSpace=wrap;html=1;" parent="E87La_fp3oiZn3WdMD0V-28" vertex="1">
          <mxGeometry y="294" width="240" height="26" as="geometry" />
        </mxCell>
        <mxCell id="rkmJLzN8BwR5XowPxIm3-52" value="FK fk_glasses_mount_type: int(11)" style="text;strokeColor=none;fillColor=none;align=left;verticalAlign=top;spacingLeft=4;spacingRight=4;overflow=hidden;rotatable=0;points=[[0,0.5],[1,0.5]];portConstraint=eastwest;whiteSpace=wrap;html=1;" parent="E87La_fp3oiZn3WdMD0V-28" vertex="1">
          <mxGeometry y="320" width="240" height="26" as="geometry" />
        </mxCell>
        <mxCell id="E87La_fp3oiZn3WdMD0V-46" value="customers" style="swimlane;fontStyle=1;align=center;verticalAlign=top;childLayout=stackLayout;horizontal=1;startSize=26;horizontalStack=0;resizeParent=1;resizeParentMax=0;resizeLast=0;collapsible=1;marginBottom=0;whiteSpace=wrap;html=1;" parent="1" vertex="1">
          <mxGeometry x="210" y="590" width="190" height="268" as="geometry" />
        </mxCell>
        <mxCell id="E87La_fp3oiZn3WdMD0V-47" value="PK&amp;nbsp;id: int(11)" style="text;strokeColor=default;fillColor=none;align=left;verticalAlign=top;spacingLeft=4;spacingRight=4;overflow=hidden;rotatable=0;points=[[0,0.5],[1,0.5]];portConstraint=eastwest;whiteSpace=wrap;html=1;" parent="E87La_fp3oiZn3WdMD0V-46" vertex="1">
          <mxGeometry y="26" width="190" height="26" as="geometry" />
        </mxCell>
        <mxCell id="E87La_fp3oiZn3WdMD0V-48" value="name: varchar(45)" style="text;strokeColor=none;fillColor=none;align=left;verticalAlign=top;spacingLeft=4;spacingRight=4;overflow=hidden;rotatable=0;points=[[0,0.5],[1,0.5]];portConstraint=eastwest;whiteSpace=wrap;html=1;" parent="E87La_fp3oiZn3WdMD0V-46" vertex="1">
          <mxGeometry y="52" width="190" height="26" as="geometry" />
        </mxCell>
        <mxCell id="E87La_fp3oiZn3WdMD0V-49" value="address_id: int(11)" style="text;strokeColor=none;fillColor=none;align=left;verticalAlign=top;spacingLeft=4;spacingRight=4;overflow=hidden;rotatable=0;points=[[0,0.5],[1,0.5]];portConstraint=eastwest;whiteSpace=wrap;html=1;" parent="E87La_fp3oiZn3WdMD0V-46" vertex="1">
          <mxGeometry y="78" width="190" height="26" as="geometry" />
        </mxCell>
        <mxCell id="E87La_fp3oiZn3WdMD0V-50" value="email: varchar(100)" style="text;strokeColor=none;fillColor=none;align=left;verticalAlign=top;spacingLeft=4;spacingRight=4;overflow=hidden;rotatable=0;points=[[0,0.5],[1,0.5]];portConstraint=eastwest;whiteSpace=wrap;html=1;" parent="E87La_fp3oiZn3WdMD0V-46" vertex="1">
          <mxGeometry y="104" width="190" height="26" as="geometry" />
        </mxCell>
        <mxCell id="E87La_fp3oiZn3WdMD0V-51" value="reg_date: datetime" style="text;strokeColor=none;fillColor=none;align=left;verticalAlign=top;spacingLeft=4;spacingRight=4;overflow=hidden;rotatable=0;points=[[0,0.5],[1,0.5]];portConstraint=eastwest;whiteSpace=wrap;html=1;" parent="E87La_fp3oiZn3WdMD0V-46" vertex="1">
          <mxGeometry y="130" width="190" height="26" as="geometry" />
        </mxCell>
        <mxCell id="E87La_fp3oiZn3WdMD0V-64" value="nif: varchar(10)" style="text;strokeColor=none;fillColor=none;align=left;verticalAlign=top;spacingLeft=4;spacingRight=4;overflow=hidden;rotatable=0;points=[[0,0.5],[1,0.5]];portConstraint=eastwest;whiteSpace=wrap;html=1;" parent="E87La_fp3oiZn3WdMD0V-46" vertex="1">
          <mxGeometry y="156" width="190" height="26" as="geometry" />
        </mxCell>
        <mxCell id="E87La_fp3oiZn3WdMD0V-52" value="reco_customer: int(11)" style="text;strokeColor=none;fillColor=none;align=left;verticalAlign=top;spacingLeft=4;spacingRight=4;overflow=hidden;rotatable=0;points=[[0,0.5],[1,0.5]];portConstraint=eastwest;whiteSpace=wrap;html=1;" parent="E87La_fp3oiZn3WdMD0V-46" vertex="1">
          <mxGeometry y="182" width="190" height="26" as="geometry" />
        </mxCell>
        <mxCell id="E87La_fp3oiZn3WdMD0V-53" value="" style="line;strokeWidth=1;fillColor=none;align=left;verticalAlign=middle;spacingTop=-1;spacingLeft=3;spacingRight=3;rotatable=0;labelPosition=right;points=[];portConstraint=eastwest;strokeColor=inherit;" parent="E87La_fp3oiZn3WdMD0V-46" vertex="1">
          <mxGeometry y="208" width="190" height="8" as="geometry" />
        </mxCell>
        <mxCell id="rkmJLzN8BwR5XowPxIm3-53" value="FK fk_customer_address: int(11)" style="text;strokeColor=none;fillColor=none;align=left;verticalAlign=top;spacingLeft=4;spacingRight=4;overflow=hidden;rotatable=0;points=[[0,0.5],[1,0.5]];portConstraint=eastwest;whiteSpace=wrap;html=1;" parent="E87La_fp3oiZn3WdMD0V-46" vertex="1">
          <mxGeometry y="216" width="190" height="26" as="geometry" />
        </mxCell>
        <mxCell id="xBMUr3-AuVGmuOxtpznN-5" value="FK fk_customer_reco: int(11)" style="text;strokeColor=none;fillColor=none;align=left;verticalAlign=top;spacingLeft=4;spacingRight=4;overflow=hidden;rotatable=0;points=[[0,0.5],[1,0.5]];portConstraint=eastwest;whiteSpace=wrap;html=1;" parent="E87La_fp3oiZn3WdMD0V-46" vertex="1">
          <mxGeometry y="242" width="190" height="26" as="geometry" />
        </mxCell>
        <mxCell id="xBMUr3-AuVGmuOxtpznN-6" value="" style="html=1;verticalAlign=bottom;endArrow=block;curved=0;rounded=0;exitX=0;exitY=0.5;exitDx=0;exitDy=0;entryX=0;entryY=0.5;entryDx=0;entryDy=0;" parent="E87La_fp3oiZn3WdMD0V-46" target="E87La_fp3oiZn3WdMD0V-47" edge="1" source="xBMUr3-AuVGmuOxtpznN-5">
          <mxGeometry x="0.7898" y="-10" width="80" relative="1" as="geometry">
            <mxPoint y="80" as="sourcePoint" />
            <mxPoint x="-70" y="210" as="targetPoint" />
            <mxPoint as="offset" />
            <Array as="points">
              <mxPoint x="-70" y="255" />
              <mxPoint x="-70" y="39" />
            </Array>
          </mxGeometry>
        </mxCell>
        <mxCell id="xBMUr3-AuVGmuOxtpznN-7" value="1.. *" style="edgeLabel;html=1;align=center;verticalAlign=middle;resizable=0;points=[];" parent="xBMUr3-AuVGmuOxtpznN-6" vertex="1" connectable="0">
          <mxGeometry x="0.0073" y="3" relative="1" as="geometry">
            <mxPoint x="52" y="-127" as="offset" />
          </mxGeometry>
        </mxCell>
        <mxCell id="xBMUr3-AuVGmuOxtpznN-8" value="1" style="edgeLabel;html=1;align=center;verticalAlign=middle;resizable=0;points=[];" parent="xBMUr3-AuVGmuOxtpznN-6" vertex="1" connectable="0">
          <mxGeometry x="0.0632" relative="1" as="geometry">
            <mxPoint x="54" y="107" as="offset" />
          </mxGeometry>
        </mxCell>
        <mxCell id="E87La_fp3oiZn3WdMD0V-55" value="sales&lt;div&gt;&amp;nbsp;&lt;/div&gt;" style="swimlane;fontStyle=1;align=center;verticalAlign=top;childLayout=stackLayout;horizontal=1;startSize=26;horizontalStack=0;resizeParent=1;resizeParentMax=0;resizeLast=0;collapsible=1;marginBottom=0;whiteSpace=wrap;html=1;" parent="1" vertex="1">
          <mxGeometry x="540" y="540" width="180" height="216" as="geometry" />
        </mxCell>
        <mxCell id="E87La_fp3oiZn3WdMD0V-56" value="PK&amp;nbsp;id: int(11)" style="text;strokeColor=default;fillColor=none;align=left;verticalAlign=top;spacingLeft=4;spacingRight=4;overflow=hidden;rotatable=0;points=[[0,0.5],[1,0.5]];portConstraint=eastwest;whiteSpace=wrap;html=1;" parent="E87La_fp3oiZn3WdMD0V-55" vertex="1">
          <mxGeometry y="26" width="180" height="26" as="geometry" />
        </mxCell>
        <mxCell id="E87La_fp3oiZn3WdMD0V-57" value="employee_id: int(11)" style="text;strokeColor=none;fillColor=none;align=left;verticalAlign=top;spacingLeft=4;spacingRight=4;overflow=hidden;rotatable=0;points=[[0,0.5],[1,0.5]];portConstraint=eastwest;whiteSpace=wrap;html=1;" parent="E87La_fp3oiZn3WdMD0V-55" vertex="1">
          <mxGeometry y="52" width="180" height="26" as="geometry" />
        </mxCell>
        <mxCell id="rkmJLzN8BwR5XowPxIm3-28" value="customer_id: int&lt;span style=&quot;background-color: transparent; color: light-dark(rgb(0, 0, 0), rgb(255, 255, 255));&quot;&gt;(11)&lt;/span&gt;" style="text;strokeColor=none;fillColor=none;align=left;verticalAlign=top;spacingLeft=4;spacingRight=4;overflow=hidden;rotatable=0;points=[[0,0.5],[1,0.5]];portConstraint=eastwest;whiteSpace=wrap;html=1;" parent="E87La_fp3oiZn3WdMD0V-55" vertex="1">
          <mxGeometry y="78" width="180" height="26" as="geometry" />
        </mxCell>
        <mxCell id="rkmJLzN8BwR5XowPxIm3-33" value="total_price:&amp;nbsp;decimal(10,2)" style="text;strokeColor=none;fillColor=none;align=left;verticalAlign=top;spacingLeft=4;spacingRight=4;overflow=hidden;rotatable=0;points=[[0,0.5],[1,0.5]];portConstraint=eastwest;whiteSpace=wrap;html=1;" parent="E87La_fp3oiZn3WdMD0V-55" vertex="1">
          <mxGeometry y="104" width="180" height="26" as="geometry" />
        </mxCell>
        <mxCell id="E87La_fp3oiZn3WdMD0V-60" value="reg_date: datetime" style="text;strokeColor=none;fillColor=none;align=left;verticalAlign=top;spacingLeft=4;spacingRight=4;overflow=hidden;rotatable=0;points=[[0,0.5],[1,0.5]];portConstraint=eastwest;whiteSpace=wrap;html=1;" parent="E87La_fp3oiZn3WdMD0V-55" vertex="1">
          <mxGeometry y="130" width="180" height="26" as="geometry" />
        </mxCell>
        <mxCell id="E87La_fp3oiZn3WdMD0V-62" value="" style="line;strokeWidth=1;fillColor=none;align=left;verticalAlign=middle;spacingTop=-1;spacingLeft=3;spacingRight=3;rotatable=0;labelPosition=right;points=[];portConstraint=eastwest;strokeColor=inherit;" parent="E87La_fp3oiZn3WdMD0V-55" vertex="1">
          <mxGeometry y="156" width="180" height="8" as="geometry" />
        </mxCell>
        <mxCell id="rkmJLzN8BwR5XowPxIm3-46" value="FK fk_sale_employee: int(11)" style="text;strokeColor=none;fillColor=none;align=left;verticalAlign=top;spacingLeft=4;spacingRight=4;overflow=hidden;rotatable=0;points=[[0,0.5],[1,0.5]];portConstraint=eastwest;whiteSpace=wrap;html=1;" parent="E87La_fp3oiZn3WdMD0V-55" vertex="1">
          <mxGeometry y="164" width="180" height="26" as="geometry" />
        </mxCell>
        <mxCell id="BUF5odyCItldhYf62gLh-1" value="FK fk_sale_customer: int(11)" style="text;strokeColor=none;fillColor=none;align=left;verticalAlign=top;spacingLeft=4;spacingRight=4;overflow=hidden;rotatable=0;points=[[0,0.5],[1,0.5]];portConstraint=eastwest;whiteSpace=wrap;html=1;" vertex="1" parent="E87La_fp3oiZn3WdMD0V-55">
          <mxGeometry y="190" width="180" height="26" as="geometry" />
        </mxCell>
        <mxCell id="E87La_fp3oiZn3WdMD0V-68" value="employees" style="swimlane;fontStyle=1;align=center;verticalAlign=top;childLayout=stackLayout;horizontal=1;startSize=26;horizontalStack=0;resizeParent=1;resizeParentMax=0;resizeLast=0;collapsible=1;marginBottom=0;whiteSpace=wrap;html=1;" parent="1" vertex="1">
          <mxGeometry x="810" y="510" width="160" height="112" as="geometry" />
        </mxCell>
        <mxCell id="E87La_fp3oiZn3WdMD0V-69" value="PK&amp;nbsp;id: int(11)" style="text;strokeColor=default;fillColor=none;align=left;verticalAlign=top;spacingLeft=4;spacingRight=4;overflow=hidden;rotatable=0;points=[[0,0.5],[1,0.5]];portConstraint=eastwest;whiteSpace=wrap;html=1;" parent="E87La_fp3oiZn3WdMD0V-68" vertex="1">
          <mxGeometry y="26" width="160" height="26" as="geometry" />
        </mxCell>
        <mxCell id="E87La_fp3oiZn3WdMD0V-70" value="name: varchar(45)" style="text;strokeColor=none;fillColor=none;align=left;verticalAlign=top;spacingLeft=4;spacingRight=4;overflow=hidden;rotatable=0;points=[[0,0.5],[1,0.5]];portConstraint=eastwest;whiteSpace=wrap;html=1;" parent="E87La_fp3oiZn3WdMD0V-68" vertex="1">
          <mxGeometry y="52" width="160" height="26" as="geometry" />
        </mxCell>
        <mxCell id="E87La_fp3oiZn3WdMD0V-73" value="reg_date: datetime" style="text;strokeColor=none;fillColor=none;align=left;verticalAlign=top;spacingLeft=4;spacingRight=4;overflow=hidden;rotatable=0;points=[[0,0.5],[1,0.5]];portConstraint=eastwest;whiteSpace=wrap;html=1;" parent="E87La_fp3oiZn3WdMD0V-68" vertex="1">
          <mxGeometry y="78" width="160" height="26" as="geometry" />
        </mxCell>
        <mxCell id="E87La_fp3oiZn3WdMD0V-76" value="" style="line;strokeWidth=1;fillColor=none;align=left;verticalAlign=middle;spacingTop=-1;spacingLeft=3;spacingRight=3;rotatable=0;labelPosition=right;points=[];portConstraint=eastwest;strokeColor=inherit;" parent="E87La_fp3oiZn3WdMD0V-68" vertex="1">
          <mxGeometry y="104" width="160" height="8" as="geometry" />
        </mxCell>
        <mxCell id="rkmJLzN8BwR5XowPxIm3-1" value="" style="endArrow=classic;html=1;rounded=0;" parent="1" edge="1">
          <mxGeometry width="50" height="50" relative="1" as="geometry">
            <mxPoint x="690" y="320" as="sourcePoint" />
            <mxPoint x="520" y="320" as="targetPoint" />
          </mxGeometry>
        </mxCell>
        <mxCell id="rkmJLzN8BwR5XowPxIm3-17" value="1" style="edgeLabel;html=1;align=center;verticalAlign=middle;resizable=0;points=[];" parent="rkmJLzN8BwR5XowPxIm3-1" vertex="1" connectable="0">
          <mxGeometry relative="1" as="geometry">
            <mxPoint x="73" y="-16" as="offset" />
          </mxGeometry>
        </mxCell>
        <mxCell id="rkmJLzN8BwR5XowPxIm3-18" value="1" style="edgeLabel;html=1;align=center;verticalAlign=middle;resizable=0;points=[];" parent="rkmJLzN8BwR5XowPxIm3-1" vertex="1" connectable="0">
          <mxGeometry relative="1" as="geometry">
            <mxPoint x="-76" y="-16" as="offset" />
          </mxGeometry>
        </mxCell>
        <mxCell id="rkmJLzN8BwR5XowPxIm3-2" value="" style="endArrow=classic;html=1;rounded=0;" parent="1" edge="1">
          <mxGeometry width="50" height="50" relative="1" as="geometry">
            <mxPoint x="1040" y="320" as="sourcePoint" />
            <mxPoint x="890" y="320" as="targetPoint" />
          </mxGeometry>
        </mxCell>
        <mxCell id="rkmJLzN8BwR5XowPxIm3-13" value="1" style="edgeLabel;html=1;align=center;verticalAlign=middle;resizable=0;points=[];" parent="rkmJLzN8BwR5XowPxIm3-2" vertex="1" connectable="0">
          <mxGeometry x="0.1846" relative="1" as="geometry">
            <mxPoint x="-47" y="-15" as="offset" />
          </mxGeometry>
        </mxCell>
        <mxCell id="rkmJLzN8BwR5XowPxIm3-14" value="1..*" style="edgeLabel;html=1;align=center;verticalAlign=middle;resizable=0;points=[];" parent="rkmJLzN8BwR5XowPxIm3-2" vertex="1" connectable="0">
          <mxGeometry x="0.0462" y="3" relative="1" as="geometry">
            <mxPoint x="59" y="-17" as="offset" />
          </mxGeometry>
        </mxCell>
        <mxCell id="rkmJLzN8BwR5XowPxIm3-3" value="" style="endArrow=classic;html=1;rounded=0;exitX=0.5;exitY=0;exitDx=0;exitDy=0;" parent="1" edge="1">
          <mxGeometry width="50" height="50" relative="1" as="geometry">
            <mxPoint x="304" y="590" as="sourcePoint" />
            <mxPoint x="429" y="420" as="targetPoint" />
            <Array as="points">
              <mxPoint x="304" y="520" />
              <mxPoint x="429" y="520" />
            </Array>
          </mxGeometry>
        </mxCell>
        <mxCell id="rkmJLzN8BwR5XowPxIm3-20" value="1" style="edgeLabel;html=1;align=center;verticalAlign=middle;resizable=0;points=[];" parent="rkmJLzN8BwR5XowPxIm3-3" vertex="1" connectable="0">
          <mxGeometry x="-0.04" y="-3" relative="1" as="geometry">
            <mxPoint x="43" y="-79" as="offset" />
          </mxGeometry>
        </mxCell>
        <mxCell id="rkmJLzN8BwR5XowPxIm3-21" value="1" style="edgeLabel;html=1;align=center;verticalAlign=middle;resizable=0;points=[];" parent="rkmJLzN8BwR5XowPxIm3-3" vertex="1" connectable="0">
          <mxGeometry x="0.04" y="1" relative="1" as="geometry">
            <mxPoint x="-94" y="54" as="offset" />
          </mxGeometry>
        </mxCell>
        <mxCell id="rkmJLzN8BwR5XowPxIm3-4" value="mount_types" style="swimlane;fontStyle=1;align=center;verticalAlign=top;childLayout=stackLayout;horizontal=1;startSize=26;horizontalStack=0;resizeParent=1;resizeParentMax=0;resizeLast=0;collapsible=1;marginBottom=0;whiteSpace=wrap;html=1;" parent="1" vertex="1">
          <mxGeometry x="1050" y="642" width="160" height="112" as="geometry" />
        </mxCell>
        <mxCell id="rkmJLzN8BwR5XowPxIm3-5" value="PK id: int(11)" style="text;strokeColor=default;fillColor=none;align=left;verticalAlign=top;spacingLeft=4;spacingRight=4;overflow=hidden;rotatable=0;points=[[0,0.5],[1,0.5]];portConstraint=eastwest;whiteSpace=wrap;html=1;" parent="rkmJLzN8BwR5XowPxIm3-4" vertex="1">
          <mxGeometry y="26" width="160" height="26" as="geometry" />
        </mxCell>
        <mxCell id="rkmJLzN8BwR5XowPxIm3-6" value="name: varchar(100)" style="text;strokeColor=none;fillColor=none;align=left;verticalAlign=top;spacingLeft=4;spacingRight=4;overflow=hidden;rotatable=0;points=[[0,0.5],[1,0.5]];portConstraint=eastwest;whiteSpace=wrap;html=1;" parent="rkmJLzN8BwR5XowPxIm3-4" vertex="1">
          <mxGeometry y="52" width="160" height="26" as="geometry" />
        </mxCell>
        <mxCell id="rkmJLzN8BwR5XowPxIm3-30" value="color: varchar(100)" style="text;strokeColor=none;fillColor=none;align=left;verticalAlign=top;spacingLeft=4;spacingRight=4;overflow=hidden;rotatable=0;points=[[0,0.5],[1,0.5]];portConstraint=eastwest;whiteSpace=wrap;html=1;" parent="rkmJLzN8BwR5XowPxIm3-4" vertex="1">
          <mxGeometry y="78" width="160" height="26" as="geometry" />
        </mxCell>
        <mxCell id="rkmJLzN8BwR5XowPxIm3-8" value="" style="line;strokeWidth=1;fillColor=none;align=left;verticalAlign=middle;spacingTop=-1;spacingLeft=3;spacingRight=3;rotatable=0;labelPosition=right;points=[];portConstraint=eastwest;strokeColor=inherit;" parent="rkmJLzN8BwR5XowPxIm3-4" vertex="1">
          <mxGeometry y="104" width="160" height="8" as="geometry" />
        </mxCell>
        <mxCell id="rkmJLzN8BwR5XowPxIm3-9" value="" style="endArrow=classic;html=1;rounded=0;" parent="1" edge="1">
          <mxGeometry width="50" height="50" relative="1" as="geometry">
            <mxPoint x="1121" y="550" as="sourcePoint" />
            <mxPoint x="1121" y="644" as="targetPoint" />
          </mxGeometry>
        </mxCell>
        <mxCell id="rkmJLzN8BwR5XowPxIm3-15" value="1" style="edgeLabel;html=1;align=center;verticalAlign=middle;resizable=0;points=[];" parent="rkmJLzN8BwR5XowPxIm3-9" vertex="1" connectable="0">
          <mxGeometry x="-0.1" y="1" relative="1" as="geometry">
            <mxPoint x="-16" y="-33" as="offset" />
          </mxGeometry>
        </mxCell>
        <mxCell id="rkmJLzN8BwR5XowPxIm3-16" value="1.. *" style="edgeLabel;html=1;align=center;verticalAlign=middle;resizable=0;points=[];" parent="rkmJLzN8BwR5XowPxIm3-9" vertex="1" connectable="0">
          <mxGeometry y="1" relative="1" as="geometry">
            <mxPoint x="-19" y="30" as="offset" />
          </mxGeometry>
        </mxCell>
        <mxCell id="rkmJLzN8BwR5XowPxIm3-36" value="" style="html=1;verticalAlign=bottom;endArrow=block;curved=0;rounded=0;exitX=0;exitY=0.5;exitDx=0;exitDy=0;entryX=1;entryY=0.5;entryDx=0;entryDy=0;" parent="1" edge="1" target="E87La_fp3oiZn3WdMD0V-47" source="BUF5odyCItldhYf62gLh-1">
          <mxGeometry x="0.7898" y="-10" width="80" relative="1" as="geometry">
            <mxPoint x="530" y="740" as="sourcePoint" />
            <mxPoint x="401" y="743" as="targetPoint" />
            <mxPoint as="offset" />
            <Array as="points">
              <mxPoint x="490" y="743" />
              <mxPoint x="490" y="629" />
            </Array>
          </mxGeometry>
        </mxCell>
        <mxCell id="rkmJLzN8BwR5XowPxIm3-37" value="0.. *" style="edgeLabel;html=1;align=center;verticalAlign=middle;resizable=0;points=[];" parent="rkmJLzN8BwR5XowPxIm3-36" vertex="1" connectable="0">
          <mxGeometry x="0.0073" y="3" relative="1" as="geometry">
            <mxPoint x="34" y="66" as="offset" />
          </mxGeometry>
        </mxCell>
        <mxCell id="rkmJLzN8BwR5XowPxIm3-38" value="1" style="edgeLabel;html=1;align=center;verticalAlign=middle;resizable=0;points=[];" parent="rkmJLzN8BwR5XowPxIm3-36" vertex="1" connectable="0">
          <mxGeometry x="0.0632" relative="1" as="geometry">
            <mxPoint x="-75" y="-43" as="offset" />
          </mxGeometry>
        </mxCell>
        <mxCell id="rkmJLzN8BwR5XowPxIm3-39" value="" style="html=1;verticalAlign=bottom;endArrow=block;curved=0;rounded=0;exitX=1;exitY=0.5;exitDx=0;exitDy=0;entryX=0;entryY=0.5;entryDx=0;entryDy=0;" parent="1" edge="1" target="E87La_fp3oiZn3WdMD0V-69" source="rkmJLzN8BwR5XowPxIm3-46">
          <mxGeometry x="0.7898" y="-10" width="80" relative="1" as="geometry">
            <mxPoint x="720" y="606.5" as="sourcePoint" />
            <mxPoint x="810" y="607" as="targetPoint" />
            <mxPoint as="offset" />
            <Array as="points">
              <mxPoint x="760" y="717" />
              <mxPoint x="760" y="550" />
            </Array>
          </mxGeometry>
        </mxCell>
        <mxCell id="rkmJLzN8BwR5XowPxIm3-40" value="0.. *" style="edgeLabel;html=1;align=center;verticalAlign=middle;resizable=0;points=[];" parent="rkmJLzN8BwR5XowPxIm3-39" vertex="1" connectable="0">
          <mxGeometry x="0.0073" y="3" relative="1" as="geometry">
            <mxPoint x="-22" y="80" as="offset" />
          </mxGeometry>
        </mxCell>
        <mxCell id="rkmJLzN8BwR5XowPxIm3-41" value="1" style="edgeLabel;html=1;align=center;verticalAlign=middle;resizable=0;points=[];" parent="rkmJLzN8BwR5XowPxIm3-39" vertex="1" connectable="0">
          <mxGeometry x="0.0632" relative="1" as="geometry">
            <mxPoint x="30" y="-96" as="offset" />
          </mxGeometry>
        </mxCell>
        <mxCell id="ixOyMXAkQ-w000aH7906-4" value="&lt;h1 style=&quot;margin-top: 0px;&quot;&gt;Òptica Cul d&#39;Ampolla&lt;/h1&gt;&lt;p&gt;&lt;span style=&quot;color: rgb(55, 71, 79); font-family: Montserrat, Arial, Helvetica; font-size: 14px; background-color: rgb(248, 248, 248);&quot;&gt;Diagrama entitat-relació de la&amp;nbsp;&lt;/span&gt;&lt;span style=&quot;background-color: rgb(255, 255, 255); color: rgb(55, 71, 79); font-family: Montserrat, Arial, Helvetica; font-size: 14px; text-align: justify;&quot;&gt;base de dades.&lt;/span&gt;&lt;/p&gt;" style="text;html=1;whiteSpace=wrap;overflow=hidden;rounded=0;" parent="1" vertex="1">
          <mxGeometry x="240" y="30" width="360" height="120" as="geometry" />
        </mxCell>
        <mxCell id="emfltzd0DvG7L6Zh0Efe-1" value="basket" style="swimlane;fontStyle=1;align=center;verticalAlign=top;childLayout=stackLayout;horizontal=1;startSize=26;horizontalStack=0;resizeParent=1;resizeParentMax=0;resizeLast=0;collapsible=1;marginBottom=0;whiteSpace=wrap;html=1;" parent="1" vertex="1">
          <mxGeometry x="810" y="650" width="170" height="254" as="geometry" />
        </mxCell>
        <mxCell id="emfltzd0DvG7L6Zh0Efe-2" value="PK&amp;nbsp;id: int(11)" style="text;strokeColor=default;fillColor=none;align=left;verticalAlign=top;spacingLeft=4;spacingRight=4;overflow=hidden;rotatable=0;points=[[0,0.5],[1,0.5]];portConstraint=eastwest;whiteSpace=wrap;html=1;" parent="emfltzd0DvG7L6Zh0Efe-1" vertex="1">
          <mxGeometry y="26" width="170" height="26" as="geometry" />
        </mxCell>
        <mxCell id="BUF5odyCItldhYf62gLh-3" value="sale_id: int(11)" style="text;strokeColor=none;fillColor=none;align=left;verticalAlign=top;spacingLeft=4;spacingRight=4;overflow=hidden;rotatable=0;points=[[0,0.5],[1,0.5]];portConstraint=eastwest;whiteSpace=wrap;html=1;" vertex="1" parent="emfltzd0DvG7L6Zh0Efe-1">
          <mxGeometry y="52" width="170" height="26" as="geometry" />
        </mxCell>
        <mxCell id="xBMUr3-AuVGmuOxtpznN-9" value="glasses_id: int(11)" style="text;strokeColor=none;fillColor=none;align=left;verticalAlign=top;spacingLeft=4;spacingRight=4;overflow=hidden;rotatable=0;points=[[0,0.5],[1,0.5]];portConstraint=eastwest;whiteSpace=wrap;html=1;" parent="emfltzd0DvG7L6Zh0Efe-1" vertex="1">
          <mxGeometry y="78" width="170" height="26" as="geometry" />
        </mxCell>
        <mxCell id="emfltzd0DvG7L6Zh0Efe-6" value="amount: int(3)" style="text;strokeColor=none;fillColor=none;align=left;verticalAlign=top;spacingLeft=4;spacingRight=4;overflow=hidden;rotatable=0;points=[[0,0.5],[1,0.5]];portConstraint=eastwest;whiteSpace=wrap;html=1;" parent="emfltzd0DvG7L6Zh0Efe-1" vertex="1">
          <mxGeometry y="104" width="170" height="26" as="geometry" />
        </mxCell>
        <mxCell id="xBMUr3-AuVGmuOxtpznN-4" value="price:&amp;nbsp;decimal(10,2)" style="text;strokeColor=none;fillColor=none;align=left;verticalAlign=top;spacingLeft=4;spacingRight=4;overflow=hidden;rotatable=0;points=[[0,0.5],[1,0.5]];portConstraint=eastwest;whiteSpace=wrap;html=1;" parent="emfltzd0DvG7L6Zh0Efe-1" vertex="1">
          <mxGeometry y="130" width="170" height="26" as="geometry" />
        </mxCell>
        <mxCell id="emfltzd0DvG7L6Zh0Efe-4" value="reg_date: datetime" style="text;strokeColor=none;fillColor=none;align=left;verticalAlign=top;spacingLeft=4;spacingRight=4;overflow=hidden;rotatable=0;points=[[0,0.5],[1,0.5]];portConstraint=eastwest;whiteSpace=wrap;html=1;" parent="emfltzd0DvG7L6Zh0Efe-1" vertex="1">
          <mxGeometry y="156" width="170" height="34" as="geometry" />
        </mxCell>
        <mxCell id="xBMUr3-AuVGmuOxtpznN-10" value="" style="endArrow=classic;html=1;rounded=0;entryX=1.006;entryY=0.192;entryDx=0;entryDy=0;entryPerimeter=0;exitX=1;exitY=0.5;exitDx=0;exitDy=0;" parent="emfltzd0DvG7L6Zh0Efe-1" source="emfltzd0DvG7L6Zh0Efe-8" edge="1">
          <mxGeometry width="50" height="50" relative="1" as="geometry">
            <mxPoint x="161" y="65" as="sourcePoint" />
            <mxPoint x="228" y="-210" as="targetPoint" />
            <Array as="points">
              <mxPoint x="200" y="239" />
              <mxPoint x="200" y="-210" />
            </Array>
          </mxGeometry>
        </mxCell>
        <mxCell id="xBMUr3-AuVGmuOxtpznN-11" value="1.. *" style="edgeLabel;html=1;align=center;verticalAlign=middle;resizable=0;points=[];" parent="xBMUr3-AuVGmuOxtpznN-10" vertex="1" connectable="0">
          <mxGeometry x="-0.1" y="1" relative="1" as="geometry">
            <mxPoint x="6" y="-262" as="offset" />
          </mxGeometry>
        </mxCell>
        <mxCell id="xBMUr3-AuVGmuOxtpznN-12" value="0.. *" style="edgeLabel;html=1;align=center;verticalAlign=middle;resizable=0;points=[];" parent="xBMUr3-AuVGmuOxtpznN-10" vertex="1" connectable="0">
          <mxGeometry y="1" relative="1" as="geometry">
            <mxPoint x="-15" y="210" as="offset" />
          </mxGeometry>
        </mxCell>
        <mxCell id="xBMUr3-AuVGmuOxtpznN-14" value="" style="line;strokeWidth=1;fillColor=none;align=left;verticalAlign=middle;spacingTop=-1;spacingLeft=3;spacingRight=3;rotatable=0;labelPosition=right;points=[];portConstraint=eastwest;strokeColor=inherit;" parent="emfltzd0DvG7L6Zh0Efe-1" vertex="1">
          <mxGeometry y="190" width="170" height="8" as="geometry" />
        </mxCell>
        <mxCell id="rkmJLzN8BwR5XowPxIm3-45" value="FK fk_basket_sale: int(11)&lt;div&gt;&lt;br&gt;&lt;/div&gt;" style="text;strokeColor=none;fillColor=none;align=left;verticalAlign=top;spacingLeft=4;spacingRight=4;overflow=hidden;rotatable=0;points=[[0,0.5],[1,0.5]];portConstraint=eastwest;whiteSpace=wrap;html=1;" parent="emfltzd0DvG7L6Zh0Efe-1" vertex="1">
          <mxGeometry y="198" width="170" height="26" as="geometry" />
        </mxCell>
        <mxCell id="emfltzd0DvG7L6Zh0Efe-8" value="FK fk_basket_glasses: int(11)" style="text;strokeColor=none;fillColor=none;align=left;verticalAlign=top;spacingLeft=4;spacingRight=4;overflow=hidden;rotatable=0;points=[[0,0.5],[1,0.5]];portConstraint=eastwest;whiteSpace=wrap;html=1;" parent="emfltzd0DvG7L6Zh0Efe-1" vertex="1">
          <mxGeometry y="224" width="170" height="30" as="geometry" />
        </mxCell>
        <mxCell id="BUF5odyCItldhYf62gLh-5" value="" style="endArrow=classic;html=1;rounded=0;exitX=0;exitY=0.5;exitDx=0;exitDy=0;" edge="1" parent="1" source="rkmJLzN8BwR5XowPxIm3-45">
          <mxGeometry width="50" height="50" relative="1" as="geometry">
            <mxPoint x="680" y="820" as="sourcePoint" />
            <mxPoint x="620" y="760" as="targetPoint" />
            <Array as="points">
              <mxPoint x="620" y="861" />
            </Array>
          </mxGeometry>
        </mxCell>
        <mxCell id="BUF5odyCItldhYf62gLh-6" value="1" style="edgeLabel;html=1;align=center;verticalAlign=middle;resizable=0;points=[];" vertex="1" connectable="0" parent="BUF5odyCItldhYf62gLh-5">
          <mxGeometry x="-0.1" y="1" relative="1" as="geometry">
            <mxPoint x="-41" y="-94" as="offset" />
          </mxGeometry>
        </mxCell>
        <mxCell id="BUF5odyCItldhYf62gLh-7" value="1.. *" style="edgeLabel;html=1;align=center;verticalAlign=middle;resizable=0;points=[];" vertex="1" connectable="0" parent="BUF5odyCItldhYf62gLh-5">
          <mxGeometry y="1" relative="1" as="geometry">
            <mxPoint x="121" y="-13" as="offset" />
          </mxGeometry>
        </mxCell>
      </root>
    </mxGraphModel>
  </diagram>
</mxfile>
